<svg width="194" height="52" viewBox="0 0 194 52" fill="none" xmlns="http://www.w3.org/2000/svg">
<path d="M194 12C194 18.6274 188.627 24 182 24C175.373 24 170 18.6274 170 12C170 5.37258 175.373 0 182 0C188.627 0 194 5.37258 194 12Z" fill="#56CCF2"/>
<path d="M179.391 6.0001C179.391 5.56788 179.742 5.21749 180.174 5.21749H183.826C184.258 5.21749 184.609 5.56788 184.609 6.0001V18.0001C184.609 18.4323 184.258 18.7827 183.826 18.7827H180.174C179.742 18.7827 179.391 18.4323 179.391 18.0001V6.0001Z" fill="white"/>
<path d="M188 9.39132C188.432 9.39132 188.783 9.74171 188.783 10.1739L188.783 13.8261C188.783 14.2583 188.432 14.6087 188 14.6087L176 14.6087C175.568 14.6087 175.217 14.2583 175.217 13.8261L175.217 10.1739C175.217 9.7417 175.568 9.39132 176 9.39132L188 9.39132Z" fill="white"/>
<path d="M175.567 43.224C174.756 43.224 174.084 42.9787 173.551 42.488C173.039 41.976 172.783 41.3467 172.783 40.6C172.783 39.8533 173.039 39.2347 173.551 38.744C174.084 38.232 174.756 37.976 175.567 37.976C176.356 37.976 177.007 38.232 177.519 38.744C178.031 39.2347 178.287 39.8533 178.287 40.6C178.287 41.3467 178.031 41.976 177.519 42.488C177.007 42.9787 176.356 43.224 175.567 43.224Z" fill="#192252"/>
<path d="M151.723 38.456V34.936L162.187 19.96H167.403V34.552H170.219V38.456H167.403V43H162.923V38.456H151.723ZM163.211 24.76L156.651 34.552H163.211V24.76Z" fill="#192252"/>
<path d="M134.948 37.944C136.996 36.2373 138.628 34.8187 139.844 33.688C141.06 32.536 142.073 31.3413 142.884 30.104C143.694 28.8667 144.1 27.6507 144.1 26.456C144.1 25.368 143.844 24.5147 143.332 23.896C142.82 23.2773 142.03 22.968 140.964 22.968C139.897 22.968 139.076 23.3307 138.5 24.056C137.924 24.76 137.625 25.7307 137.604 26.968H133.252C133.337 24.408 134.094 22.4667 135.524 21.144C136.974 19.8213 138.809 19.16 141.028 19.16C143.46 19.16 145.326 19.8107 146.628 21.112C147.929 22.392 148.58 24.088 148.58 26.2C148.58 27.864 148.132 29.4533 147.236 30.968C146.34 32.4827 145.316 33.8053 144.164 34.936C143.012 36.0453 141.508 37.3893 139.652 38.968H149.092V42.68H133.284V39.352L134.948 37.944Z" fill="#192252"/>
<path d="M124.012 25.272L113.036 51.384H108.268L112.108 42.552L105.004 25.272H110.028L114.604 37.656L119.244 25.272H124.012Z" fill="#192252"/>
<path d="M95.8795 25.016C97.2235 25.016 98.4182 25.3147 99.4635 25.912C100.509 26.488 101.32 27.352 101.896 28.504C102.493 29.6347 102.792 31 102.792 32.6V43H98.3115V33.208C98.3115 31.8 97.9595 30.7227 97.2555 29.976C96.5515 29.208 95.5915 28.824 94.3755 28.824C93.1382 28.824 92.1568 29.208 91.4315 29.976C90.7275 30.7227 90.3755 31.8 90.3755 33.208V43H85.8955V19.32H90.3755V27.48C90.9515 26.712 91.7195 26.1147 92.6795 25.688C93.6395 25.24 94.7062 25.016 95.8795 25.016Z" fill="#192252"/>
<path d="M78.7052 28.952V37.528C78.7052 38.1253 78.8439 38.5627 79.1212 38.84C79.4199 39.096 79.9106 39.224 80.5932 39.224H82.6732V43H79.8572C76.0812 43 74.1932 41.1653 74.1932 37.496V28.952H72.0812V25.272H74.1932V20.888H78.7052V25.272H82.6732V28.952H78.7052Z" fill="#192252"/>
<path d="M69.063 19.32V43H64.583V19.32H69.063Z" fill="#192252"/>
<path d="M41.7435 34.072C41.7435 32.28 42.0955 30.6907 42.7995 29.304C43.5249 27.9173 44.4955 26.8507 45.7115 26.104C46.9489 25.3573 48.3249 24.984 49.8395 24.984C51.1622 24.984 52.3142 25.2507 53.2955 25.784C54.2982 26.3173 55.0982 26.9893 55.6955 27.8V25.272H60.2075V43H55.6955V40.408C55.1195 41.24 54.3195 41.9333 53.2955 42.488C52.2929 43.0213 51.1302 43.288 49.8075 43.288C48.3142 43.288 46.9489 42.904 45.7115 42.136C44.4955 41.368 43.5249 40.2907 42.7995 38.904C42.0955 37.496 41.7435 35.8853 41.7435 34.072ZM55.6955 34.136C55.6955 33.048 55.4822 32.12 55.0555 31.352C54.6289 30.5627 54.0529 29.9653 53.3275 29.56C52.6022 29.1333 51.8235 28.92 50.9915 28.92C50.1595 28.92 49.3915 29.1227 48.6875 29.528C47.9835 29.9333 47.4075 30.5307 46.9595 31.32C46.5329 32.088 46.3195 33.0053 46.3195 34.072C46.3195 35.1387 46.5329 36.0773 46.9595 36.888C47.4075 37.6773 47.9835 38.2853 48.6875 38.712C49.4129 39.1387 50.1809 39.352 50.9915 39.352C51.8235 39.352 52.6022 39.1493 53.3275 38.744C54.0529 38.3173 54.6289 37.72 55.0555 36.952C55.4822 36.1627 55.6955 35.224 55.6955 34.136Z" fill="#192252"/>
<path d="M39.6255 33.752C39.6255 34.392 39.5829 34.968 39.4975 35.48H26.5375C26.6442 36.76 27.0922 37.7627 27.8815 38.488C28.6709 39.2133 29.6415 39.576 30.7935 39.576C32.4575 39.576 33.6415 38.8613 34.3455 37.432H39.1775C38.6655 39.1387 37.6842 40.5467 36.2335 41.656C34.7829 42.744 33.0015 43.288 30.8895 43.288C29.1829 43.288 27.6469 42.9147 26.2815 42.168C24.9375 41.4 23.8815 40.3227 23.1135 38.936C22.3669 37.5493 21.9935 35.9493 21.9935 34.136C21.9935 32.3013 22.3669 30.6907 23.1135 29.304C23.8602 27.9173 24.9055 26.8507 26.2495 26.104C27.5935 25.3573 29.1402 24.984 30.8895 24.984C32.5749 24.984 34.0789 25.3467 35.4015 26.072C36.7455 26.7973 37.7802 27.832 38.5055 29.176C39.2522 30.4987 39.6255 32.024 39.6255 33.752ZM34.9855 32.472C34.9642 31.32 34.5482 30.4027 33.7375 29.72C32.9269 29.016 31.9349 28.664 30.7615 28.664C29.6522 28.664 28.7135 29.0053 27.9455 29.688C27.1989 30.3493 26.7402 31.2773 26.5695 32.472H34.9855Z" fill="#192252"/>
<path d="M18.736 20.664V43H14.256V33.496H4.68801V43H0.208008V20.664H4.68801V29.848H14.256V20.664H18.736Z" fill="#192252"/>
</svg>
