<svg width="139" height="49" viewBox="0 0 139 49" fill="none" xmlns="http://www.w3.org/2000/svg">
<g filter="url(#filter0_di_101_2600)">
<circle cx="114.5" cy="20.5" r="5.5" fill="#56CCF2"/>
</g>
<rect x="113.304" y="17.3916" width="2.3913" height="6.21739" rx="0.782609" fill="white"/>
<rect x="117.609" y="19.3047" width="2.3913" height="6.21739" rx="0.782609" transform="rotate(90 117.609 19.3047)" fill="white"/>
<path d="M12.96 26.54V40.5H10.16V34.56H4.18V40.5H1.38V26.54H4.18V32.28H10.16V26.54H12.96ZM26.0159 34.72C26.0159 35.12 25.9893 35.48 25.9359 35.8H17.8359C17.9026 36.6 18.1826 37.2267 18.6759 37.68C19.1693 38.1333 19.7759 38.36 20.4959 38.36C21.5359 38.36 22.2759 37.9133 22.7159 37.02H25.7359C25.4159 38.0867 24.8026 38.9667 23.8959 39.66C22.9893 40.34 21.8759 40.68 20.5559 40.68C19.4893 40.68 18.5293 40.4467 17.6759 39.98C16.8359 39.5 16.1759 38.8267 15.6959 37.96C15.2293 37.0933 14.9959 36.0933 14.9959 34.96C14.9959 33.8133 15.2293 32.8067 15.6959 31.94C16.1626 31.0733 16.8159 30.4067 17.6559 29.94C18.4959 29.4733 19.4626 29.24 20.5559 29.24C21.6093 29.24 22.5493 29.4667 23.3759 29.92C24.2159 30.3733 24.8626 31.02 25.3159 31.86C25.7826 32.6867 26.0159 33.64 26.0159 34.72ZM23.1159 33.92C23.1026 33.2 22.8426 32.6267 22.3359 32.2C21.8293 31.76 21.2093 31.54 20.4759 31.54C19.7826 31.54 19.1959 31.7533 18.7159 32.18C18.2493 32.5933 17.9626 33.1733 17.8559 33.92H23.1159ZM27.3397 34.92C27.3397 33.8 27.5597 32.8067 27.9997 31.94C28.453 31.0733 29.0597 30.4067 29.8197 29.94C30.593 29.4733 31.453 29.24 32.3997 29.24C33.2264 29.24 33.9464 29.4067 34.5597 29.74C35.1864 30.0733 35.6864 30.4933 36.0597 31V29.42H38.8797V40.5H36.0597V38.88C35.6997 39.4 35.1997 39.8333 34.5597 40.18C33.933 40.5133 33.2064 40.68 32.3797 40.68C31.4464 40.68 30.593 40.44 29.8197 39.96C29.0597 39.48 28.453 38.8067 27.9997 37.94C27.5597 37.06 27.3397 36.0533 27.3397 34.92ZM36.0597 34.96C36.0597 34.28 35.9264 33.7 35.6597 33.22C35.393 32.7267 35.033 32.3533 34.5797 32.1C34.1264 31.8333 33.6397 31.7 33.1197 31.7C32.5997 31.7 32.1197 31.8267 31.6797 32.08C31.2397 32.3333 30.8797 32.7067 30.5997 33.2C30.333 33.68 30.1997 34.2533 30.1997 34.92C30.1997 35.5867 30.333 36.1733 30.5997 36.68C30.8797 37.1733 31.2397 37.5533 31.6797 37.82C32.133 38.0867 32.613 38.22 33.1197 38.22C33.6397 38.22 34.1264 38.0933 34.5797 37.84C35.033 37.5733 35.393 37.2 35.6597 36.72C35.9264 36.2267 36.0597 35.64 36.0597 34.96ZM44.4144 25.7V40.5H41.6144V25.7H44.4144ZM50.4408 31.72V37.08C50.4408 37.4533 50.5274 37.7267 50.7008 37.9C50.8874 38.06 51.1941 38.14 51.6208 38.14H52.9208V40.5H51.1608C48.8008 40.5 47.6208 39.3533 47.6208 37.06V31.72H46.3008V29.42H47.6208V26.68H50.4408V29.42H52.9208V31.72H50.4408ZM61.1747 29.26C62.0147 29.26 62.7614 29.4467 63.4147 29.82C64.068 30.18 64.5747 30.72 64.9347 31.44C65.308 32.1467 65.4947 33 65.4947 34V40.5H62.6947V34.38C62.6947 33.5 62.4747 32.8267 62.0347 32.36C61.5947 31.88 60.9947 31.64 60.2347 31.64C59.4614 31.64 58.848 31.88 58.3947 32.36C57.9547 32.8267 57.7347 33.5 57.7347 34.38V40.5H54.9347V25.7H57.7347V30.8C58.0947 30.32 58.5747 29.9467 59.1747 29.68C59.7747 29.4 60.4414 29.26 61.1747 29.26ZM78.7573 29.42L71.8973 45.74H68.9173L71.3173 40.22L66.8773 29.42H70.0173L72.8773 37.16L75.7773 29.42H78.7573ZM85.5923 37.34C86.8723 36.2733 87.8923 35.3867 88.6523 34.68C89.4123 33.96 90.0457 33.2133 90.5523 32.44C91.059 31.6667 91.3123 30.9067 91.3123 30.16C91.3123 29.48 91.1523 28.9467 90.8323 28.56C90.5123 28.1733 90.019 27.98 89.3523 27.98C88.6857 27.98 88.1723 28.2067 87.8123 28.66C87.4523 29.1 87.2657 29.7067 87.2523 30.48H84.5323C84.5857 28.88 85.059 27.6667 85.9523 26.84C86.859 26.0133 88.0057 25.6 89.3923 25.6C90.9123 25.6 92.079 26.0067 92.8923 26.82C93.7057 27.62 94.1123 28.68 94.1123 30C94.1123 31.04 93.8323 32.0333 93.2723 32.98C92.7123 33.9267 92.0723 34.7533 91.3523 35.46C90.6323 36.1533 89.6923 36.9933 88.5323 37.98H94.4323V40.3H84.5523V38.22L85.5923 37.34ZM96.0767 37.66V35.46L102.617 26.1H105.877V35.22H107.637V37.66H105.877V40.5H103.077V37.66H96.0767ZM103.257 29.1L99.1567 35.22H103.257V29.1ZM110.979 40.64C110.473 40.64 110.053 40.4867 109.719 40.18C109.399 39.86 109.239 39.4667 109.239 39C109.239 38.5333 109.399 38.1467 109.719 37.84C110.053 37.52 110.473 37.36 110.979 37.36C111.473 37.36 111.879 37.52 112.199 37.84C112.519 38.1467 112.679 38.5333 112.679 39C112.679 39.4667 112.519 39.86 112.199 40.18C111.879 40.4867 111.473 40.64 110.979 40.64Z" fill="#192252"/>
<defs>
<filter id="filter0_di_101_2600" x="90" y="0" width="49" height="49" filterUnits="userSpaceOnUse" color-interpolation-filters="sRGB">
<feFlood flood-opacity="0" result="BackgroundImageFix"/>
<feColorMatrix in="SourceAlpha" type="matrix" values="0 0 0 0 0 0 0 0 0 0 0 0 0 0 0 0 0 0 127 0" result="hardAlpha"/>
<feOffset dy="4"/>
<feGaussianBlur stdDeviation="9.5"/>
<feComposite in2="hardAlpha" operator="out"/>
<feColorMatrix type="matrix" values="0 0 0 0 0.0862745 0 0 0 0 0.470588 0 0 0 0 0.94902 0 0 0 0.2 0"/>
<feBlend mode="normal" in2="BackgroundImageFix" result="effect1_dropShadow_101_2600"/>
<feBlend mode="normal" in="SourceGraphic" in2="effect1_dropShadow_101_2600" result="shape"/>
<feColorMatrix in="SourceAlpha" type="matrix" values="0 0 0 0 0 0 0 0 0 0 0 0 0 0 0 0 0 0 127 0" result="hardAlpha"/>
<feOffset dy="4"/>
<feGaussianBlur stdDeviation="2"/>
<feComposite in2="hardAlpha" operator="arithmetic" k2="-1" k3="1"/>
<feColorMatrix type="matrix" values="0 0 0 0 0 0 0 0 0 0 0 0 0 0 0 0 0 0 0.12 0"/>
<feBlend mode="normal" in2="shape" result="effect2_innerShadow_101_2600"/>
</filter>
</defs>
</svg>
