<svg width="16" height="16" viewBox="0 0 16 16" fill="none" xmlns="http://www.w3.org/2000/svg">
<path d="M12.883 6.31201C12.883 6.31201 12.521 10.802 12.311 12.6933C12.211 13.5967 11.653 14.126 10.739 14.1427C8.9997 14.174 7.25836 14.176 5.5197 14.1393C4.64036 14.1213 4.0917 13.5853 3.9937 12.698C3.78236 10.79 3.42236 6.31201 3.42236 6.31201" stroke="#192252" stroke-linecap="round" stroke-linejoin="round"/>
<path d="M13.8053 4.15975H2.5" stroke="#192252" stroke-linecap="round" stroke-linejoin="round"/>
<path d="M11.6269 4.15974C11.1036 4.15974 10.6529 3.78974 10.5502 3.27707L10.3882 2.46641C10.2882 2.09241 9.94956 1.83374 9.56356 1.83374H6.74156C6.35556 1.83374 6.01689 2.09241 5.91689 2.46641L5.75489 3.27707C5.65222 3.78974 5.20156 4.15974 4.67822 4.15974" stroke="#192252" stroke-linecap="round" stroke-linejoin="round"/>
</svg>
