<svg width="16" height="16" viewBox="0 0 16 16" fill="none" xmlns="http://www.w3.org/2000/svg">
<path d="M6.5068 9.57787C6.12347 9.1952 5.89014 8.6752 5.89014 8.09187C5.89014 6.9232 6.83147 5.9812 7.99947 5.9812C8.57747 5.9812 9.10947 6.2152 9.48614 6.59787" stroke="#192252" stroke-linecap="round" stroke-linejoin="round"/>
<path d="M10.0698 8.46582C9.91509 9.32582 9.23775 10.0045 8.37842 10.1605" stroke="#192252" stroke-linecap="round" stroke-linejoin="round"/>
<path d="M4.43634 11.6482C3.37834 10.8176 2.48234 9.60423 1.83301 8.09157C2.48901 6.57223 3.39101 5.35223 4.45567 4.5149C5.51367 3.67757 6.73434 3.2229 7.99967 3.2229C9.27234 3.2229 10.4923 3.68423 11.557 4.52757" stroke="#192252" stroke-linecap="round" stroke-linejoin="round"/>
<path d="M12.9649 5.9939C13.4235 6.60323 13.8269 7.30656 14.1662 8.09123C12.8549 11.1292 10.5375 12.9592 7.99952 12.9592C7.42419 12.9592 6.85686 12.8659 6.31152 12.6839" stroke="#192252" stroke-linecap="round" stroke-linejoin="round"/>
<path d="M13.2577 2.83301L2.7417 13.349" stroke="#192252" stroke-linecap="round" stroke-linejoin="round"/>
</svg>
