<svg width="24" height="24" viewBox="0 0 24 24" fill="none" xmlns="http://www.w3.org/2000/svg">
<path fill-rule="evenodd" clip-rule="evenodd" d="M11.9996 9.64111C10.6696 9.64111 9.58859 10.7231 9.58859 12.0531C9.58859 13.3821 10.6696 14.4631 11.9996 14.4631C13.3296 14.4631 14.4116 13.3821 14.4116 12.0531C14.4116 10.7231 13.3296 9.64111 11.9996 9.64111ZM11.9996 15.9631C9.84259 15.9631 8.08859 14.2091 8.08859 12.0531C8.08859 9.89611 9.84259 8.14111 11.9996 8.14111C14.1566 8.14111 15.9116 9.89611 15.9116 12.0531C15.9116 14.2091 14.1566 15.9631 11.9996 15.9631Z" fill="#C5D0E6"/>
<mask id="mask0_101_2197" style="mask-type:luminance" maskUnits="userSpaceOnUse" x="2" y="4" width="20" height="17">
<path fill-rule="evenodd" clip-rule="evenodd" d="M2.00015 4H22V20.105H2.00015V4Z" fill="white"/>
</mask>
<g mask="url(#mask0_101_2197)">
<path fill-rule="evenodd" clip-rule="evenodd" d="M3.5699 12.0523C5.4299 16.1613 8.5629 18.6043 11.9999 18.6053C15.4369 18.6043 18.5699 16.1613 20.4299 12.0523C18.5699 7.94426 15.4369 5.50126 11.9999 5.50026C8.5639 5.50126 5.4299 7.94426 3.5699 12.0523ZM12.0019 20.1053H11.9979H11.9969C7.8609 20.1023 4.1469 17.2033 2.0609 12.3483C1.9799 12.1593 1.9799 11.9453 2.0609 11.7563C4.1469 6.90226 7.8619 4.00326 11.9969 4.00026C11.9989 3.99926 11.9989 3.99926 11.9999 4.00026C12.0019 3.99926 12.0019 3.99926 12.0029 4.00026C16.1389 4.00326 19.8529 6.90226 21.9389 11.7563C22.0209 11.9453 22.0209 12.1593 21.9389 12.3483C19.8539 17.2033 16.1389 20.1023 12.0029 20.1053H12.0019Z" fill="#C5D0E6"/>
</g>
</svg>
