<svg width="70" height="70" viewBox="0 0 70 70" fill="none" xmlns="http://www.w3.org/2000/svg">
<g filter="url(#filter0_di_12_141)">
<path d="M35 47C43.8366 47 51 39.8366 51 31C51 22.1634 43.8366 15 35 15C26.1634 15 19 22.1634 19 31C19 39.8366 26.1634 47 35 47Z" fill="#56CCF2"/>
</g>
<path d="M37.4343 21.9564H32.5648C31.9885 21.9564 31.5213 22.4236 31.5213 22.9999V38.9999C31.5213 39.5762 31.9885 40.0433 32.5648 40.0433H37.4343C38.0106 40.0433 38.4778 39.5762 38.4778 38.9999V22.9999C38.4778 22.4236 38.0106 21.9564 37.4343 21.9564Z" fill="white"/>
<path d="M44.0427 33.4345V28.5649C44.0427 27.9886 43.5755 27.5215 42.9992 27.5215H26.9992C26.4229 27.5215 25.9557 27.9886 25.9557 28.5649V33.4345C25.9557 34.0108 26.4229 34.478 26.9992 34.478H42.9992C43.5755 34.478 44.0427 34.0108 44.0427 33.4345Z" fill="white"/>
<defs>
<filter id="filter0_di_12_141" x="0" y="0" width="70" height="70" filterUnits="userSpaceOnUse" color-interpolation-filters="sRGB">
<feFlood flood-opacity="0" result="BackgroundImageFix"/>
<feColorMatrix in="SourceAlpha" type="matrix" values="0 0 0 0 0 0 0 0 0 0 0 0 0 0 0 0 0 0 127 0" result="hardAlpha"/>
<feOffset dy="4"/>
<feGaussianBlur stdDeviation="9.5"/>
<feComposite in2="hardAlpha" operator="out"/>
<feColorMatrix type="matrix" values="0 0 0 0 0.0862745 0 0 0 0 0.470588 0 0 0 0 0.94902 0 0 0 0.2 0"/>
<feBlend mode="normal" in2="BackgroundImageFix" result="effect1_dropShadow_12_141"/>
<feBlend mode="normal" in="SourceGraphic" in2="effect1_dropShadow_12_141" result="shape"/>
<feColorMatrix in="SourceAlpha" type="matrix" values="0 0 0 0 0 0 0 0 0 0 0 0 0 0 0 0 0 0 127 0" result="hardAlpha"/>
<feOffset dy="4"/>
<feGaussianBlur stdDeviation="2"/>
<feComposite in2="hardAlpha" operator="arithmetic" k2="-1" k3="1"/>
<feColorMatrix type="matrix" values="0 0 0 0 0 0 0 0 0 0 0 0 0 0 0 0 0 0 0.12 0"/>
<feBlend mode="normal" in2="shape" result="effect2_innerShadow_12_141"/>
</filter>
</defs>
</svg>
